<svg width="24" height="25" viewBox="0 0 24 25" fill="none" xmlns="http://www.w3.org/2000/svg">
<path d="M12 2.5C10.0222 2.5 8.08879 3.08649 6.4443 4.1853C4.79981 5.28412 3.51809 6.8459 2.76121 8.67317C2.00433 10.5004 1.8063 12.5111 2.19215 14.4509C2.578 16.3907 3.53041 18.1725 4.92894 19.5711C6.32746 20.9696 8.10929 21.922 10.0491 22.3079C11.9889 22.6937 13.9996 22.4957 15.8268 21.7388C17.6541 20.9819 19.2159 19.7002 20.3147 18.0557C21.4135 16.4112 22 14.4778 22 12.5C22 11.1868 21.7413 9.88642 21.2388 8.67317C20.7363 7.45991 19.9997 6.35752 19.0711 5.42893C18.1425 4.50035 17.0401 3.76375 15.8268 3.2612C14.6136 2.75866 13.3132 2.5 12 2.5ZM12 20.5C10.4178 20.5 8.87104 20.0308 7.55544 19.1518C6.23985 18.2727 5.21447 17.0233 4.60897 15.5615C4.00347 14.0997 3.84504 12.4911 4.15372 10.9393C4.4624 9.38743 5.22433 7.96197 6.34315 6.84315C7.46197 5.72433 8.88743 4.9624 10.4393 4.65372C11.9911 4.34504 13.5997 4.50346 15.0615 5.10896C16.5233 5.71447 17.7727 6.73984 18.6518 8.05544C19.5308 9.37103 20 10.9177 20 12.5C20 14.6217 19.1572 16.6566 17.6569 18.1569C16.1566 19.6571 14.1217 20.5 12 20.5Z" fill="#1A1B22"/>
<path d="M10.52 12.28C10.8462 12.2137 11.1381 12.0334 11.3434 11.7713C11.5486 11.5092 11.6538 11.1826 11.64 10.85C11.64 9.85 10.87 9.25 9.7 9.25H7V15.75H9.7C11 15.7 12 15.03 12 13.87C12.0094 13.6679 11.9783 13.466 11.9086 13.276C11.839 13.0861 11.7321 12.912 11.5942 12.7639C11.4564 12.6158 11.2904 12.4967 11.1059 12.4136C10.9214 12.3305 10.7222 12.2851 10.52 12.28ZM8.26 10.17H9.41C10.01 10.17 10.36 10.49 10.36 11.02C10.36 11.55 9.98 11.91 9.11 11.91H8.26V10.17ZM9.26 14.74H8.26V12.8H9.49C10.24 12.8 10.66 13.18 10.66 13.8C10.66 14.42 10.24 14.74 9.22 14.74H9.26ZM14.75 10.8C14.4468 10.7747 14.1417 10.8154 13.8556 10.9191C13.5696 11.0228 13.3093 11.1872 13.0928 11.4009C12.8762 11.6146 12.7084 11.8726 12.6009 12.1573C12.4934 12.4419 12.4488 12.7465 12.47 13.05V13.5C12.4454 13.8122 12.4893 14.126 12.5986 14.4195C12.7079 14.713 12.88 14.979 13.1029 15.1991C13.3258 15.4191 13.594 15.5878 13.8889 15.6933C14.1838 15.7988 14.4981 15.8386 14.81 15.81C15.3036 15.8686 15.8014 15.7413 16.2063 15.4529C16.6111 15.1645 16.8941 14.7357 17 14.25H15.79C15.7274 14.458 15.5917 14.6364 15.4079 14.7522C15.2241 14.8679 15.0046 14.9133 14.79 14.88C14.6371 14.8838 14.4852 14.8548 14.3445 14.795C14.2037 14.7351 14.0775 14.6458 13.9742 14.5331C13.8709 14.4203 13.793 14.2867 13.7457 14.1413C13.6984 13.9958 13.6828 13.842 13.7 13.69V13.55H17V13.08C17.0236 12.7772 16.9818 12.4728 16.8774 12.1875C16.7731 11.9022 16.6087 11.6427 16.3953 11.4265C16.182 11.2103 15.9247 11.0425 15.6408 10.9344C15.3569 10.8263 15.0531 10.7805 14.75 10.8ZM15.75 12.8H13.73C13.7175 12.6613 13.734 12.5215 13.7786 12.3896C13.8233 12.2577 13.8949 12.1366 13.9891 12.034C14.0832 11.9314 14.1977 11.8495 14.3253 11.7937C14.4529 11.738 14.5907 11.7094 14.73 11.71C14.8693 11.7094 15.0071 11.738 15.1347 11.7937C15.2623 11.8495 15.3768 11.9314 15.4709 12.034C15.5651 12.1366 15.6367 12.2577 15.6814 12.3896C15.726 12.5215 15.7425 12.6613 15.73 12.8H15.75ZM13.25 9.7H16.25V10.2H13.25V9.7Z" fill="#1A1B22"/>
</svg>
