<svg width="24" height="25" viewBox="0 0 24 25" fill="none" xmlns="http://www.w3.org/2000/svg">
<path d="M21 14.5C20.7348 14.5 20.4804 14.6054 20.2929 14.7929C20.1054 14.9804 20 15.2348 20 15.5V19.5C20 19.7652 19.8946 20.0196 19.7071 20.2071C19.5196 20.3946 19.2652 20.5 19 20.5H5C4.73478 20.5 4.48043 20.3946 4.29289 20.2071C4.10536 20.0196 4 19.7652 4 19.5V15.5C4 15.2348 3.89464 14.9804 3.70711 14.7929C3.51957 14.6054 3.26522 14.5 3 14.5C2.73478 14.5 2.48043 14.6054 2.29289 14.7929C2.10536 14.9804 2 15.2348 2 15.5V19.5C2 20.2956 2.31607 21.0587 2.87868 21.6213C3.44129 22.1839 4.20435 22.5 5 22.5H19C19.7956 22.5 20.5587 22.1839 21.1213 21.6213C21.6839 21.0587 22 20.2956 22 19.5V15.5C22 15.2348 21.8946 14.9804 21.7071 14.7929C21.5196 14.6054 21.2652 14.5 21 14.5ZM11.29 16.21C11.3851 16.301 11.4972 16.3724 11.62 16.42C11.7397 16.4729 11.8691 16.5002 12 16.5002C12.1309 16.5002 12.2603 16.4729 12.38 16.42C12.5028 16.3724 12.6149 16.301 12.71 16.21L16.71 12.21C16.8983 12.0217 17.0041 11.7663 17.0041 11.5C17.0041 11.2337 16.8983 10.9783 16.71 10.79C16.5217 10.6017 16.2663 10.4959 16 10.4959C15.7337 10.4959 15.4783 10.6017 15.29 10.79L13 13.09V3.5C13 3.23478 12.8946 2.98043 12.7071 2.79289C12.5196 2.60536 12.2652 2.5 12 2.5C11.7348 2.5 11.4804 2.60536 11.2929 2.79289C11.1054 2.98043 11 3.23478 11 3.5V13.09L8.71 10.79C8.61676 10.6968 8.50607 10.6228 8.38425 10.5723C8.26243 10.5219 8.13186 10.4959 8 10.4959C7.86814 10.4959 7.73757 10.5219 7.61575 10.5723C7.49393 10.6228 7.38324 10.6968 7.29 10.79C7.19676 10.8832 7.1228 10.9939 7.07234 11.1158C7.02188 11.2376 6.99591 11.3681 6.99591 11.5C6.99591 11.6319 7.02188 11.7624 7.07234 11.8842C7.1228 12.0061 7.19676 12.1168 7.29 12.21L11.29 16.21Z" fill="#1A1B22"/>
</svg>
