<svg width="24" height="25" viewBox="0 0 24 25" fill="none" xmlns="http://www.w3.org/2000/svg">
<g clip-path="url(#clip0_148_6314)">
<path d="M22.3233 9.05959H20.8106V7.54679C20.8106 6.62227 20.0585 5.87012 19.134 5.87012H17.6212V4.35746C17.6212 3.4299 16.8687 2.68079 15.9446 2.68079H1.67667C0.754453 2.68083 0 3.42755 0 4.35746V14.2637C0 15.1882 0.752156 15.9403 1.67667 15.9403H3.18937V17.4531C3.18937 18.3776 3.94153 19.1298 4.86605 19.1298H6.37875V20.6425C6.37875 21.567 7.13091 22.3192 8.05542 22.3192H22.3234C23.2479 22.3192 24 21.567 24 20.6425V10.7362C24 9.81174 23.2478 9.05959 22.3233 9.05959ZM14.7343 4.35511L8.81063 10.1604L2.88708 4.35526L14.7343 4.35511ZM1.67442 14.2637L1.67475 5.51157L8.22464 11.9306C8.55019 12.2497 9.07116 12.2496 9.39661 11.9306L15.9465 5.51152L15.9447 14.2659L1.67442 14.2637ZM4.8638 17.453V15.9403H15.9447C16.8692 15.9403 17.6213 15.1882 17.6213 14.2637V7.54482L19.1362 7.54529C19.1362 7.54529 19.1362 7.5458 19.1362 7.54683L19.134 17.4553L4.8638 17.453ZM22.3233 20.6447L8.05317 20.6424V19.1297H19.134C20.0586 19.1297 20.8107 18.3775 20.8107 17.453V10.7342L22.3256 10.7347C22.3256 10.7347 22.3257 10.7352 22.3257 10.7362L22.3233 20.6447Z" fill="#1A1B22"/>
</g>
<defs>
<clipPath id="clip0_148_6314">
<rect width="24" height="24" fill="white" transform="translate(0 0.5)"/>
</clipPath>
</defs>
</svg>
