<svg width="24" height="25" viewBox="0 0 24 25" fill="none" xmlns="http://www.w3.org/2000/svg">
<path d="M6.87301 17.629C5.02801 16.319 3.56801 14.615 2.74301 13.539C2.51231 13.242 2.38708 12.8766 2.38708 12.5005C2.38708 12.1244 2.51231 11.759 2.74301 11.462C4.23601 9.513 7.81801 5.5 12 5.5C13.876 5.5 15.63 6.307 17.13 7.374" stroke="#1A1B22" stroke-width="2" stroke-linecap="round" stroke-linejoin="round"/>
<path d="M14.13 10.387C13.8523 10.1047 13.5214 9.88011 13.1565 9.72629C12.7916 9.57246 12.3998 9.49241 12.0038 9.49075C11.6078 9.48909 11.2154 9.56586 10.8491 9.71662C10.4829 9.86738 10.1502 10.0892 9.87016 10.3692C9.5901 10.6492 9.36824 10.9818 9.21739 11.348C9.06654 11.7142 8.98969 12.1066 8.99125 12.5026C8.99282 12.8986 9.07278 13.2904 9.22652 13.6554C9.38026 14.0203 9.60473 14.3512 9.887 14.629M4 20.5L20 4.5M10 19.204C10.6492 19.3972 11.3227 19.4969 12 19.5C16.182 19.5 19.764 15.487 21.257 13.538C21.4876 13.2407 21.6127 12.8751 21.6125 12.4988C21.6124 12.1226 21.4869 11.7571 21.256 11.46C20.7313 10.7755 20.1684 10.1211 19.57 9.5" stroke="#1A1B22" stroke-width="2" stroke-linecap="round" stroke-linejoin="round"/>
</svg>
