<svg width="25" height="25" viewBox="0 0 25 25" fill="none" xmlns="http://www.w3.org/2000/svg">
<path d="M12.8936 5.80824C13.3892 5.24975 13.9916 4.79624 14.6653 4.47449C15.3391 4.15274 16.0705 3.96928 16.8163 3.93495C17.5622 3.90062 18.3073 4.01611 19.0078 4.2746C19.7083 4.5331 20.3498 4.92935 20.8945 5.43995C21.4393 5.95055 21.8762 6.56515 22.1794 7.24743C22.4826 7.92972 22.6461 8.66586 22.66 9.41236C22.674 10.1589 22.5382 10.9006 22.2606 11.5937C21.9831 12.2869 21.5695 12.9174 21.0442 13.448L12.8328 21.7382C12.773 21.7986 12.7018 21.8466 12.6234 21.8793C12.545 21.912 12.4609 21.9288 12.3759 21.9288C12.2909 21.9288 12.2068 21.912 12.1284 21.8793C12.05 21.8466 11.9788 21.7986 11.919 21.7382L3.70762 13.448C2.71161 12.4424 2.13438 11.0963 2.09253 9.68153C2.05069 8.2668 2.54735 6.88892 3.48219 5.82624C5.70048 3.30367 9.6279 3.2951 11.8582 5.80824L12.3759 6.3911L12.8936 5.80824Z" fill="#1D6BF3"/>
</svg>
