<svg width="25" height="25" viewBox="0 0 25 25" fill="none" xmlns="http://www.w3.org/2000/svg">
<path d="M13.3 6.07998L12.48 6.90198L11.656 6.07798C10.648 5.07003 9.28074 4.50382 7.85519 4.50391C6.42963 4.50401 5.0625 5.0704 4.05454 6.07848C3.04659 7.08657 2.48037 8.45378 2.48047 9.87934C2.48056 11.3049 3.04695 12.672 4.05504 13.68L11.95 21.575C12.0907 21.7154 12.2813 21.7943 12.48 21.7943C12.6788 21.7943 12.8694 21.7154 13.01 21.575L20.912 13.678C21.9189 12.6698 22.4844 11.3031 22.4842 9.87828C22.484 8.45341 21.9182 7.08689 20.911 6.07898C20.4114 5.57903 19.8182 5.18242 19.1652 4.91182C18.5122 4.64123 17.8124 4.50195 17.1055 4.50195C16.3987 4.50195 15.6988 4.64123 15.0459 4.91182C14.3929 5.18242 13.7997 5.58003 13.3 6.07998ZM19.848 12.62L12.48 19.985L5.11504 12.62C4.75207 12.2609 4.46366 11.8335 4.26638 11.3626C4.06909 10.8916 3.96684 10.3863 3.96548 9.87571C3.96412 9.36511 4.06369 8.85927 4.25846 8.38727C4.45323 7.91527 4.73937 7.48642 5.10042 7.12537C5.46148 6.76431 5.89033 6.47818 6.36233 6.2834C6.83433 6.08863 7.34017 5.98906 7.85077 5.99042C8.36138 5.99178 8.86668 6.09404 9.33763 6.29132C9.80859 6.4886 10.2359 6.77701 10.595 7.13998L11.953 8.49698C12.0237 8.56772 12.1078 8.62362 12.2003 8.66138C12.2929 8.69915 12.3921 8.71803 12.4921 8.71692C12.592 8.7158 12.6908 8.6947 12.7825 8.65487C12.8742 8.61504 12.957 8.55728 13.026 8.48498L14.36 7.13998C15.0953 6.45556 16.0674 6.083 17.0718 6.10067C18.0762 6.11834 19.0346 6.52487 19.7454 7.23474C20.4562 7.94461 20.8639 8.90248 20.8829 9.90685C20.9018 10.9112 20.5315 11.8838 19.848 12.62Z" fill="#1A1B22"/>
</svg>
