<svg width="24" height="25" viewBox="0 0 24 25" fill="none" xmlns="http://www.w3.org/2000/svg">
<path d="M17 13.63V17.327H14.857V13.877C14.857 13.011 14.547 12.42 13.771 12.42C13.179 12.42 12.826 12.818 12.671 13.204C12.615 13.342 12.6 13.534 12.6 13.726V17.327H10.456C10.456 17.327 10.485 11.485 10.456 10.88H12.6V11.793L12.586 11.814H12.6V11.794C12.885 11.354 13.393 10.728 14.532 10.728C15.942 10.728 17 11.65 17 13.63ZM8.213 7.771C7.48 7.771 7 8.253 7 8.885C7 9.505 7.466 10 8.185 10H8.199C8.947 10 9.412 9.504 9.412 8.885C9.398 8.253 8.947 7.771 8.213 7.771ZM7.127 17.327H9.271V10.88H7.127V17.327Z" fill="#1A1B22"/>
<path d="M6 4.5C5.46957 4.5 4.96086 4.71071 4.58579 5.08579C4.21071 5.46086 4 5.96957 4 6.5V18.5C4 19.0304 4.21071 19.5391 4.58579 19.9142C4.96086 20.2893 5.46957 20.5 6 20.5H18C18.5304 20.5 19.0391 20.2893 19.4142 19.9142C19.7893 19.5391 20 19.0304 20 18.5V6.5C20 5.96957 19.7893 5.46086 19.4142 5.08579C19.0391 4.71071 18.5304 4.5 18 4.5H6ZM6 2.5H18C19.0609 2.5 20.0783 2.92143 20.8284 3.67157C21.5786 4.42172 22 5.43913 22 6.5V18.5C22 19.5609 21.5786 20.5783 20.8284 21.3284C20.0783 22.0786 19.0609 22.5 18 22.5H6C4.93913 22.5 3.92172 22.0786 3.17157 21.3284C2.42143 20.5783 2 19.5609 2 18.5V6.5C2 5.43913 2.42143 4.42172 3.17157 3.67157C3.92172 2.92143 4.93913 2.5 6 2.5V2.5Z" fill="#1A1B22"/>
</svg>
