<svg width="25" height="25" viewBox="0 0 25 25" fill="none" xmlns="http://www.w3.org/2000/svg">
<path d="M19.9062 12.5C19.9062 10.55 19.2269 8.89567 17.8682 7.537C16.5103 6.179 14.8562 5.5 12.9062 5.5V3.5C14.1562 3.5 15.3272 3.73733 16.4192 4.212C17.5106 4.68733 18.4606 5.329 19.2693 6.137C20.0773 6.94567 20.7189 7.89567 21.1943 8.987C21.6689 10.079 21.9062 11.25 21.9062 12.5H19.9062ZM15.9062 12.5C15.9062 11.6667 15.6146 10.9583 15.0312 10.375C14.4479 9.79167 13.7396 9.5 12.9062 9.5V7.5C14.2896 7.5 15.4689 7.98733 16.4443 8.962C17.4189 9.93733 17.9062 11.1167 17.9062 12.5H15.9062ZM20.8563 21.5C18.7063 21.5 16.6106 21.0207 14.5693 20.062C12.5273 19.104 10.7189 17.8373 9.14425 16.262C7.56892 14.6873 6.30225 12.879 5.34425 10.837C4.38558 8.79567 3.90625 6.7 3.90625 4.55C3.90625 4.25 4.00625 4 4.20625 3.8C4.40625 3.6 4.65625 3.5 4.95625 3.5H9.00625C9.23958 3.5 9.44792 3.575 9.63125 3.725C9.81458 3.875 9.92292 4.06667 9.95625 4.3L10.6062 7.8C10.6396 8.03333 10.6356 8.24567 10.5942 8.437C10.5522 8.629 10.4562 8.8 10.3062 8.95L7.88125 11.4C8.58125 12.6 9.46058 13.725 10.5192 14.775C11.5773 15.825 12.7396 16.7333 14.0063 17.5L16.3562 15.15C16.5062 15 16.7023 14.8873 16.9443 14.812C17.1856 14.7373 17.4229 14.7167 17.6562 14.75L21.1063 15.45C21.3396 15.5 21.5312 15.6123 21.6812 15.787C21.8312 15.9623 21.9062 16.1667 21.9062 16.4V20.45C21.9062 20.75 21.8063 21 21.6063 21.2C21.4062 21.4 21.1562 21.5 20.8563 21.5ZM6.93125 9.5L8.58125 7.85L8.15625 5.5H5.93125C6.01458 6.18333 6.13125 6.85833 6.28125 7.525C6.43125 8.19167 6.64792 8.85 6.93125 9.5ZM15.8813 18.45C16.5312 18.7333 17.1939 18.9583 17.8692 19.125C18.5439 19.2917 19.2229 19.4 19.9062 19.45V17.25L17.5562 16.775L15.8813 18.45Z" fill="#1A1B22"/>
</svg>
