<svg width="24" height="25" viewBox="0 0 24 25" fill="none" xmlns="http://www.w3.org/2000/svg">
<path d="M8.68408 13.842C8.88608 13.438 9.00008 12.982 9.00008 12.5C9.00008 12.018 8.88608 11.562 8.68408 11.158M8.68408 13.842C8.38178 14.4464 7.88428 14.931 7.27217 15.2174C6.66007 15.5037 5.96921 15.575 5.31152 15.4197C4.65384 15.2644 4.06785 14.8916 3.64849 14.3617C3.22914 13.8317 3.00098 13.1758 3.00098 12.5C3.00098 11.8242 3.22914 11.1682 3.64849 10.6383C4.06785 10.1084 4.65384 9.7356 5.31152 9.58029C5.96921 9.42499 6.66007 9.49628 7.27217 9.78263C7.88428 10.069 8.38178 10.5536 8.68408 11.158M8.68408 13.842L15.3161 17.158M8.68408 11.158L15.3161 7.84199M15.3161 17.158C14.9602 17.8698 14.9016 18.6939 15.1533 19.4489C15.4049 20.204 15.9462 20.8281 16.6581 21.184C17.3699 21.5399 18.194 21.5985 18.949 21.3468C19.704 21.0951 20.3282 20.5538 20.6841 19.842C21.04 19.1302 21.0986 18.3061 20.8469 17.5511C20.5952 16.796 20.0539 16.1719 19.3421 15.816C18.9896 15.6398 18.6059 15.5347 18.2128 15.5067C17.8197 15.4788 17.425 15.5286 17.0511 15.6532C16.2961 15.9049 15.672 16.4462 15.3161 17.158ZM15.3161 7.84199C15.4923 8.19439 15.7362 8.50863 16.0339 8.76677C16.3316 9.0249 16.6772 9.22188 17.051 9.34645C17.4248 9.47102 17.8195 9.52074 18.2125 9.49278C18.6055 9.46482 18.9892 9.35973 19.3416 9.18349C19.694 9.00726 20.0082 8.76334 20.2664 8.46566C20.5245 8.16798 20.7215 7.82238 20.846 7.44858C20.9706 7.07477 21.0203 6.6801 20.9924 6.28708C20.9644 5.89406 20.8593 5.51039 20.6831 5.15799C20.3272 4.44628 19.7031 3.90511 18.9482 3.65353C18.1932 3.40195 17.3693 3.46057 16.6576 3.81649C15.9459 4.17241 15.4047 4.79648 15.1531 5.55141C14.9015 6.30634 14.9602 7.13028 15.3161 7.84199Z" stroke="#1A1B22" stroke-width="2" stroke-linecap="round" stroke-linejoin="round"/>
</svg>
