<svg width="24" height="25" viewBox="0 0 24 25" fill="none" xmlns="http://www.w3.org/2000/svg">
<path d="M22.2647 2.92778C21.98 2.69091 21.6364 2.53567 21.2704 2.47858C20.9045 2.42149 20.5299 2.46469 20.1866 2.60357L2.26566 9.83892C1.88241 9.9966 1.55618 10.2671 1.33026 10.6145C1.10434 10.962 0.989427 11.3699 1.00076 11.7841C1.0121 12.1984 1.14916 12.5994 1.39374 12.934C1.63832 13.2685 1.97886 13.5208 2.37016 13.6573L5.99516 14.918L8.01566 21.5997C8.04312 21.6889 8.08297 21.7739 8.13404 21.852C8.14179 21.864 8.15272 21.873 8.16096 21.8846C8.21996 21.967 8.29127 22.0397 8.37239 22.1004C8.39546 22.118 8.41755 22.1345 8.44221 22.1501C8.53714 22.2131 8.64228 22.2591 8.75294 22.2862L8.76478 22.2872L8.77149 22.2901C8.83802 22.3036 8.90574 22.3105 8.97364 22.3106C8.98017 22.3106 8.98597 22.3074 8.99244 22.3073C9.0949 22.3055 9.19647 22.2879 9.29353 22.255C9.31611 22.2473 9.33546 22.2345 9.35737 22.2252C9.42975 22.1952 9.49832 22.1567 9.56166 22.1106C9.61238 22.0679 9.66312 22.0251 9.71388 21.9824L12.416 18.9991L16.4463 22.1211C16.8011 22.3974 17.2379 22.5475 17.6875 22.5479C18.1587 22.5473 18.6154 22.3847 18.9809 22.0874C19.3465 21.7901 19.5987 21.3762 19.6954 20.9151L22.958 4.89849C23.032 4.53801 23.0065 4.16421 22.8844 3.81708C22.7623 3.46995 22.5481 3.16255 22.2647 2.92778ZM9.37016 15.2364C9.2315 15.3745 9.13672 15.5505 9.0977 15.7422L8.78819 17.2462L8.00413 14.6532L12.0694 12.5362L9.37016 15.2364ZM17.6719 20.5401L12.9092 16.8506C12.71 16.6966 12.46 16.6234 12.2092 16.6455C11.9583 16.6675 11.725 16.7833 11.5557 16.9697L10.6903 17.9249L10.9961 16.4385L18.0791 9.35549C18.2482 9.18665 18.3512 8.96285 18.3695 8.72461C18.3878 8.48638 18.3201 8.24947 18.1788 8.05681C18.0375 7.86414 17.8319 7.72845 17.5992 7.67433C17.3664 7.6202 17.122 7.65121 16.9102 7.76174L6.74491 13.0544L3.02055 11.6915L20.999 4.49905L17.6719 20.5401Z" fill="#1A1B22"/>
</svg>
