<svg width="24" height="25" viewBox="0 0 24 25" fill="none" xmlns="http://www.w3.org/2000/svg">
<path d="M15.7437 14.0293C15.4516 13.7134 15.1235 13.4328 14.7662 13.1932C16.208 12.0785 17.2183 10.4981 17.625 8.72168C17.655 8.5933 17.6594 8.46026 17.6378 8.3302C17.6162 8.20014 17.5691 8.07563 17.4992 7.96384C17.4293 7.85205 17.338 7.75519 17.2305 7.67883C17.123 7.60246 17.0015 7.5481 16.8729 7.51887C16.7444 7.48965 16.6113 7.48613 16.4814 7.50852C16.3515 7.53092 16.2273 7.57879 16.1159 7.64937C16.0045 7.71995 15.9082 7.81186 15.8325 7.9198C15.7568 8.02774 15.7032 8.14958 15.6748 8.27832C15.4854 9.10929 15.117 9.88894 14.5953 10.5629C14.0737 11.2369 13.4113 11.7889 12.6543 12.1806V8.502C12.6481 8.42841 12.6335 8.35579 12.6106 8.28557C12.604 8.22775 12.5924 8.1706 12.5761 8.11474C12.5334 8.02379 12.4772 7.93987 12.4093 7.86583C12.3914 7.84459 12.3824 7.81658 12.3629 7.79693C12.2896 7.7293 12.2067 7.67299 12.1168 7.62987C12.0913 7.61626 12.0723 7.59325 12.0455 7.58187C11.9689 7.55635 11.8895 7.54001 11.809 7.53322C11.7594 7.51869 11.7086 7.50826 11.6572 7.50203L11.0029 7.5H11C10.7661 7.49888 10.5392 7.58021 10.3593 7.7297C10.1793 7.8792 10.0578 8.0873 10.016 8.31748C9.97422 8.54766 10.0149 8.7852 10.1308 8.9884C10.2467 9.1916 10.4305 9.34747 10.6499 9.42865V14.3193C9.06523 12.6743 8.01592 10.588 7.64014 8.335C7.61821 8.20554 7.57099 8.08166 7.50119 7.97045C7.43138 7.85923 7.34036 7.76286 7.23331 7.68682C7.12626 7.61078 7.00528 7.55658 6.87728 7.52729C6.74928 7.49801 6.61676 7.49423 6.4873 7.51616C6.35784 7.53809 6.23396 7.58531 6.12275 7.65511C6.01153 7.72492 5.91516 7.81594 5.83912 7.92299C5.76308 8.03004 5.70888 8.15102 5.67959 8.27902C5.65031 8.40702 5.64653 8.53954 5.66846 8.669C6.25285 12.1516 8.19485 15.2601 11.0684 17.3125C11.1093 17.3371 11.1521 17.3586 11.1962 17.377C11.2308 17.3973 11.2667 17.4154 11.3036 17.4312C11.4153 17.4758 11.5341 17.4998 11.6543 17.502C11.8014 17.5002 11.9462 17.4654 12.0781 17.4001C12.0881 17.3954 12.0995 17.3976 12.1094 17.3926C12.1978 17.3466 12.2787 17.2875 12.3495 17.2173C12.3637 17.2035 12.3732 17.1865 12.3867 17.1718C12.4512 17.1009 12.505 17.021 12.5466 16.9346C12.5605 16.9059 12.5732 16.8785 12.5843 16.8484C12.6283 16.7381 12.652 16.6207 12.6543 16.502L12.6548 14.376C13.2744 14.5579 13.8327 14.9053 14.2695 15.3809L15.9175 17.1777C16.0061 17.2748 16.1131 17.3535 16.2322 17.4092C16.3513 17.4649 16.4802 17.4966 16.6115 17.5024C16.7429 17.5083 16.8741 17.4881 16.9977 17.4432C17.1212 17.3982 17.2347 17.3293 17.3316 17.2404C17.4285 17.1516 17.5069 17.0445 17.5624 16.9252C17.6178 16.806 17.6492 16.677 17.6547 16.5457C17.6603 16.4143 17.6398 16.2831 17.5946 16.1597C17.5493 16.0362 17.4802 15.9229 17.3911 15.8262L15.7437 14.0293ZM15.0728 1.5H8.9375C2.78027 1.5 1 3.27832 1 9.42676V15.5625C1 21.7197 2.77783 23.5 8.92725 23.5H15.0625C21.2197 23.5 23 21.7217 23 15.5732V9.4375C23 3.28027 21.2222 1.5 15.0728 1.5ZM21 15.5732C21 20.6133 20.1123 21.5 15.0625 21.5H8.92725C3.88623 21.5 3 20.6123 3 15.5625V9.42676C3 4.38672 3.8877 3.5 8.9375 3.5H15.0728C20.1138 3.5 21 4.3877 21 9.4375V15.5732Z" fill="#1A1B22"/>
</svg>
