<svg width="1440" height="1024" viewBox="0 0 1440 1024" fill="none" xmlns="http://www.w3.org/2000/svg">
<g clip-path="url(#clip0_321_12115)">
<rect width="1920" height="1080" transform="translate(-16)" fill="#1A1B22"/>
<path d="M1829 195C1829 454.022 1619.02 664 1360 664C1334.91 664 1310.28 662.03 1286.25 658.235L1283.04 663.798C1308.09 667.878 1333.8 670 1360 670C1622.34 670 1835 457.335 1835 195C1835 -67.3353 1622.34 -280 1360 -280C1097.66 -280 885 -67.3353 885 195C885 421.413 1043.41 610.827 1255.45 658.456L1258.59 653.008C1048.32 606.66 891 419.202 891 195C891 -64.0215 1100.98 -274 1360 -274C1619.02 -274 1829 -64.0215 1829 195Z" fill="white"/>
<path d="M1406.44 385.612L1057 990.859L1499.48 1246.32L1864.28 614.465L1447.01 373.554L1444.01 378.75L1856.09 616.661L1497.28 1238.13L1065.2 988.663L1411.64 388.612L1406.44 385.612Z" fill="#5A9BFF"/>
<path d="M-410.3 700.448L-161.23 83.7271L279.132 582.186L-410.3 700.448Z" stroke="white" stroke-width="4"/>
</g>
<defs>
<clipPath id="clip0_321_12115">
<rect width="1920" height="1080" fill="white" transform="translate(-16)"/>
</clipPath>
</defs>
</svg>
