<svg width="26" height="26" viewBox="0 0 26 26" fill="none" xmlns="http://www.w3.org/2000/svg">
<g id="Icon/bell">
<path id="Vector 6" d="M5.95833 16.1262V8.84754C5.95833 7.19272 6.73093 5.63278 8.04723 4.62989V4.62989C8.80716 4.05089 9.70942 3.68797 10.6586 3.57949L11.8273 3.44593C12.9611 3.31635 14.1089 3.39049 15.2166 3.66485L15.5411 3.74524L16.5258 4.01733C17.0566 4.16401 17.5452 4.4342 17.9517 4.80581V4.80581C18.9381 5.70771 19.5 6.98275 19.5 8.31936V16.1262M5.47857 16.1262H20.5214C21.7522 16.1262 22.75 17.124 22.75 18.3548V18.3548C22.75 19.5856 21.7522 20.5833 20.5214 20.5833H5.47857C4.24777 20.5833 3.25 19.5856 3.25 18.3548V18.3548C3.25 17.124 4.24777 16.1262 5.47857 16.1262Z" stroke="white" stroke-width="2" stroke-linecap="round" stroke-linejoin="round"/>
<path id="Vector 7" d="M13 1.0835V3.25016" stroke="white" stroke-width="2" stroke-linecap="round"/>
<path id="Vector 8" d="M9.75 21.6665L10.0467 22.1611C10.6692 23.1984 11.7902 23.8332 13 23.8332V23.8332C14.2098 23.8332 15.3308 23.1984 15.9533 22.1611L16.25 21.6665" stroke="white" stroke-width="2" stroke-linecap="square" stroke-linejoin="round"/>
</g>
</svg>
