<svg width="235" height="40" viewBox="0 0 235 40" fill="none" xmlns="http://www.w3.org/2000/svg">
<g clip-path="url(#clip0_448_11631)">
<path d="M40.8096 0H0.80957V38.2979H40.8096V0Z" fill="#1A1B22"/>
<path d="M32.0465 30.3207V27.9189H11.3514V30.3207H32.0465Z" fill="white"/>
<path d="M24.6552 8.10332L22.4828 9.3042L32.8304 26.4641L35.0028 25.2632L24.6552 8.10332Z" fill="white"/>
<path d="M18.7418 8.10332L20.9142 9.3042L10.5666 26.464L8.39419 25.2632L18.7418 8.10332Z" fill="white"/>
<path d="M35.3394 27.8833H32.8309V32.6868H35.3394V27.8833Z" fill="white"/>
<path d="M10.5673 27.8833H8.05884V32.6868H10.5673V27.8833Z" fill="white"/>
<path d="M56.417 21.5156H55.4243V27.2602H53V13.5951H55.4243V19.4543H56.4933L60.8457 13.5951H63.4228L58.4214 20.3132L63.6137 27.2602H60.7503L56.417 21.5156ZM67.7316 25.6762C68.037 25.6762 68.3106 25.6316 68.5524 25.5426C68.7942 25.4535 69.0105 25.3453 69.2014 25.2181C69.405 25.0781 69.5768 24.9255 69.7168 24.7601C69.8696 24.5947 69.9968 24.4292 70.0986 24.2638V22.7561H68.9724C68.0179 22.7561 67.337 22.8961 66.9298 23.176C66.5226 23.4559 66.3189 23.8376 66.3189 24.3211C66.3189 24.741 66.4398 25.0718 66.6816 25.3135C66.9234 25.5553 67.2734 25.6762 67.7316 25.6762ZM70.3468 27.2602C70.3213 27.0948 70.2895 26.8785 70.2513 26.6113C70.2259 26.3441 70.2068 26.0897 70.1941 25.8479C70.0541 26.0515 69.8886 26.2487 69.6978 26.4396C69.5069 26.6304 69.2841 26.8022 69.0296 26.9549C68.7751 27.1076 68.4824 27.2284 68.1515 27.3175C67.8334 27.4066 67.477 27.4511 67.0825 27.4511C66.6625 27.4511 66.2617 27.3875 65.8799 27.2602C65.5108 27.1457 65.1863 26.9676 64.9063 26.7258C64.6264 26.4841 64.4036 26.1851 64.2382 25.8288C64.0855 25.4726 64.0091 25.0527 64.0091 24.5692C64.0091 23.5004 64.4036 22.6861 65.1927 22.1263C65.9817 21.5537 67.2034 21.2674 68.8578 21.2674H70.0986V20.7712C70.0986 20.1223 69.9268 19.677 69.5832 19.4353C69.2396 19.1808 68.7178 19.0536 68.0179 19.0536C67.407 19.0536 66.8471 19.1363 66.338 19.3017C65.8417 19.4671 65.3899 19.6579 64.9827 19.8742L64.5055 18.042C64.9127 17.8257 65.4408 17.6285 66.0899 17.4504C66.7516 17.2595 67.4834 17.1641 68.2851 17.1641C69.5959 17.1641 70.614 17.4377 71.3394 17.9848C72.0648 18.5192 72.4275 19.3844 72.4275 20.5804V25.6571C72.4275 25.7716 72.4275 25.9052 72.4275 26.0579C72.4403 26.1978 72.4466 26.3441 72.4466 26.4968C72.4593 26.6495 72.4657 26.7958 72.4657 26.9358C72.4784 27.063 72.4912 27.1712 72.5039 27.2602H70.3468ZM79.4346 25.5426C80.1982 25.5426 80.8154 25.2754 81.2862 24.741C81.7698 24.1939 82.0116 23.3796 82.0116 22.2981C82.0116 21.2166 81.7698 20.4086 81.2862 19.8742C80.8154 19.3271 80.1982 19.0536 79.4346 19.0536C79.0528 19.0536 78.6965 19.1235 78.3656 19.2635C78.0474 19.3907 77.7674 19.5879 77.5256 19.8551C77.2966 20.1223 77.112 20.4595 76.9721 20.8667C76.8321 21.2738 76.7621 21.7509 76.7621 22.2981C76.7621 22.8452 76.8321 23.3223 76.9721 23.7295C77.112 24.1366 77.2966 24.4738 77.5256 24.741C77.7674 25.0082 78.0474 25.2117 78.3656 25.3517C78.6965 25.4789 79.0528 25.5426 79.4346 25.5426ZM80.0073 27.4511C79.2564 27.4511 78.6137 27.2857 78.0792 26.9549C77.5447 26.6113 77.112 26.1533 76.7812 25.5807V30.6383H74.4714V17.355H76.6094L76.743 19.0726C77.0739 18.4874 77.5066 18.0229 78.0411 17.6794C78.5883 17.3359 79.2564 17.1641 80.0454 17.1641C80.6308 17.1641 81.1844 17.2723 81.7062 17.4886C82.2407 17.6921 82.7052 18.0102 83.0997 18.4428C83.4942 18.8627 83.806 19.3971 84.0351 20.046C84.2769 20.6822 84.3978 21.4329 84.3978 22.2981C84.3978 23.176 84.2769 23.9394 84.0351 24.5883C83.806 25.2245 83.4879 25.7589 83.0806 26.1915C82.6861 26.6113 82.2216 26.9294 81.6871 27.1457C81.1526 27.3493 80.5927 27.4511 80.0073 27.4511ZM88.2737 22.3171V25.4662H89.6673C90.2654 25.4662 90.749 25.3453 91.118 25.1036C91.4871 24.8618 91.6716 24.4611 91.6716 23.9012C91.6716 23.3414 91.5062 22.9406 91.1753 22.6988C90.8444 22.4444 90.3672 22.3171 89.7436 22.3171H88.2737ZM85.9448 17.355H88.2737V20.5231H89.7436C91.1053 20.5231 92.1616 20.7903 92.9124 21.3247C93.676 21.8591 94.0578 22.6861 94.0578 23.8058C94.0578 24.3911 93.9496 24.9 93.7333 25.3326C93.5169 25.7652 93.2115 26.1278 92.817 26.4205C92.4352 26.7004 91.9707 26.9103 91.4235 27.0503C90.889 27.1903 90.3036 27.2602 89.6673 27.2602H85.9448V17.355ZM99.777 18.9581C99.1152 18.9581 98.568 19.149 98.1353 19.5307C97.7153 19.9124 97.4353 20.485 97.2953 21.2484H101.858C101.883 20.485 101.705 19.9124 101.323 19.5307C100.954 19.149 100.439 18.9581 99.777 18.9581ZM103.9 26.4968C103.837 26.5477 103.709 26.6241 103.518 26.7258C103.34 26.8276 103.099 26.9358 102.793 27.0503C102.5 27.1521 102.144 27.2412 101.724 27.3175C101.304 27.4066 100.821 27.4511 100.273 27.4511C98.4534 27.4511 97.0917 26.9994 96.1882 26.096C95.2973 25.1927 94.8519 23.9267 94.8519 22.2981C94.8519 21.4965 94.9728 20.7776 95.2146 20.1414C95.4564 19.5052 95.7937 18.9708 96.2263 18.5382C96.659 18.0929 97.1744 17.7557 97.7726 17.5267C98.3834 17.285 99.0516 17.1641 99.777 17.1641C100.515 17.1641 101.183 17.285 101.781 17.5267C102.379 17.7685 102.869 18.1311 103.251 18.6146C103.646 19.0981 103.919 19.7025 104.072 20.4277C104.225 21.1529 104.225 21.9927 104.072 22.947H97.2572C97.3462 23.8122 97.639 24.4611 98.1353 24.8937C98.6443 25.3263 99.3952 25.5426 100.388 25.5426C100.795 25.5426 101.164 25.5107 101.495 25.4471C101.839 25.3708 102.131 25.2881 102.373 25.199C102.628 25.0972 102.838 25.0018 103.003 24.9127C103.181 24.811 103.308 24.7283 103.385 24.6646L103.9 26.4968ZM110.745 25.5426C111.508 25.5426 112.126 25.2754 112.596 24.741C113.08 24.1939 113.322 23.3796 113.322 22.2981C113.322 21.2166 113.08 20.4086 112.596 19.8742C112.126 19.3271 111.508 19.0536 110.745 19.0536C110.363 19.0536 110.007 19.1235 109.676 19.2635C109.358 19.3907 109.078 19.5879 108.836 19.8551C108.607 20.1223 108.422 20.4595 108.282 20.8667C108.142 21.2738 108.072 21.7509 108.072 22.2981C108.072 22.8452 108.142 23.3223 108.282 23.7295C108.422 24.1366 108.607 24.4738 108.836 24.741C109.078 25.0082 109.358 25.2117 109.676 25.3517C110.007 25.4789 110.363 25.5426 110.745 25.5426ZM111.317 27.4511C110.567 27.4511 109.924 27.2857 109.389 26.9549C108.855 26.6113 108.422 26.1533 108.091 25.5807V30.6383H105.782V17.355H107.92L108.053 19.0726C108.384 18.4874 108.817 18.0229 109.351 17.6794C109.898 17.3359 110.567 17.1641 111.356 17.1641C111.941 17.1641 112.495 17.2723 113.016 17.4886C113.551 17.6921 114.015 18.0102 114.41 18.4428C114.804 18.8627 115.116 19.3971 115.345 20.046C115.587 20.6822 115.708 21.4329 115.708 22.2981C115.708 23.176 115.587 23.9394 115.345 24.5883C115.116 25.2245 114.798 25.7589 114.391 26.1915C113.996 26.6113 113.532 26.9294 112.997 27.1457C112.463 27.3493 111.903 27.4511 111.317 27.4511ZM123.746 23.1187H119.603V27.2602H117.293V17.355H119.603V21.2484H123.746V17.355H126.074V27.2602H123.746V23.1187ZM139.566 27.2602H137.237V17.355H139.566V27.2602ZM130.537 22.3171V25.4662H131.797C132.395 25.4662 132.879 25.3453 133.248 25.1036C133.617 24.8618 133.801 24.4611 133.801 23.9012C133.801 23.3414 133.636 22.9406 133.305 22.6988C132.974 22.4444 132.497 22.3171 131.873 22.3171H130.537ZM128.227 17.355H130.537V20.5231H131.873C133.235 20.5231 134.291 20.7903 135.042 21.3247C135.806 21.8591 136.187 22.6861 136.187 23.8058C136.187 24.3911 136.079 24.9 135.863 25.3326C135.647 25.7652 135.341 26.1278 134.947 26.4205C134.565 26.7004 134.1 26.9103 133.553 27.0503C133.019 27.1903 132.433 27.2602 131.797 27.2602H128.227V17.355ZM146.353 16.2098C145.819 16.2098 145.354 16.1399 144.96 15.9999C144.565 15.8472 144.234 15.6436 143.967 15.3892C143.7 15.1347 143.502 14.8421 143.375 14.5112C143.248 14.1677 143.184 13.7987 143.184 13.4043H145.208C145.208 13.8496 145.31 14.1677 145.513 14.3586C145.717 14.5494 145.997 14.6448 146.353 14.6448C146.709 14.6448 146.989 14.5494 147.193 14.3586C147.397 14.1677 147.499 13.8496 147.499 13.4043H149.522C149.522 13.7987 149.452 14.1677 149.312 14.5112C149.185 14.8421 148.987 15.1347 148.72 15.3892C148.466 15.6436 148.141 15.8472 147.747 15.9999C147.352 16.1399 146.888 16.2098 146.353 16.2098ZM141.734 17.355H144.024V24.2066L148.758 17.355H151.03V27.2602H148.739V20.4277L144.024 27.2602H141.734V17.355ZM162.205 15.6564V27.2602H159.761V15.6564H155.829V13.5951H166.157V15.6564H162.205ZM171.389 25.5426C172.152 25.5426 172.769 25.2754 173.24 24.741C173.724 24.1939 173.966 23.3796 173.966 22.2981C173.966 21.2166 173.724 20.4086 173.24 19.8742C172.769 19.3271 172.152 19.0536 171.389 19.0536C171.007 19.0536 170.651 19.1235 170.32 19.2635C170.001 19.3907 169.722 19.5879 169.48 19.8551C169.251 20.1223 169.066 20.4595 168.926 20.8667C168.786 21.2738 168.716 21.7509 168.716 22.2981C168.716 22.8452 168.786 23.3223 168.926 23.7295C169.066 24.1366 169.251 24.4738 169.48 24.741C169.722 25.0082 170.001 25.2117 170.32 25.3517C170.651 25.4789 171.007 25.5426 171.389 25.5426ZM171.961 27.4511C171.21 27.4511 170.568 27.2857 170.033 26.9549C169.499 26.6113 169.066 26.1533 168.735 25.5807V30.6383H166.425V17.355H168.563L168.697 19.0726C169.028 18.4874 169.461 18.0229 169.995 17.6794C170.542 17.3359 171.21 17.1641 172 17.1641C172.585 17.1641 173.139 17.2723 173.66 17.4886C174.195 17.6921 174.659 18.0102 175.054 18.4428C175.448 18.8627 175.76 19.3971 175.989 20.046C176.231 20.6822 176.352 21.4329 176.352 22.2981C176.352 23.176 176.231 23.9394 175.989 24.5883C175.76 25.2245 175.442 25.7589 175.035 26.1915C174.64 26.6113 174.176 26.9294 173.641 27.1457C173.107 27.3493 172.547 27.4511 171.961 27.4511ZM182.252 18.9581C181.59 18.9581 181.043 19.149 180.61 19.5307C180.19 19.9124 179.91 20.485 179.77 21.2484H184.333C184.358 20.485 184.18 19.9124 183.798 19.5307C183.429 19.149 182.914 18.9581 182.252 18.9581ZM186.375 26.4968C186.312 26.5477 186.184 26.6241 185.994 26.7258C185.815 26.8276 185.574 26.9358 185.268 27.0503C184.975 27.1521 184.619 27.2412 184.199 27.3175C183.779 27.4066 183.296 27.4511 182.748 27.4511C180.929 27.4511 179.567 26.9994 178.663 26.096C177.772 25.1927 177.327 23.9267 177.327 22.2981C177.327 21.4965 177.448 20.7776 177.69 20.1414C177.932 19.5052 178.269 18.9708 178.701 18.5382C179.134 18.0929 179.65 17.7557 180.248 17.5267C180.859 17.285 181.527 17.1641 182.252 17.1641C182.99 17.1641 183.658 17.285 184.256 17.5267C184.855 17.7685 185.345 18.1311 185.726 18.6146C186.121 19.0981 186.394 19.7025 186.547 20.4277C186.7 21.1529 186.7 21.9927 186.547 22.947H179.732C179.821 23.8122 180.114 24.4611 180.61 24.8937C181.119 25.3263 181.87 25.5426 182.863 25.5426C183.27 25.5426 183.639 25.5107 183.97 25.4471C184.314 25.3708 184.606 25.2881 184.848 25.199C185.103 25.0972 185.313 25.0018 185.478 24.9127C185.656 24.811 185.784 24.7283 185.86 24.6646L186.375 26.4968ZM191.424 23.2714H190.565V27.2602H188.256V17.355H190.565V21.4201H191.482L194.574 17.355H196.979L193.295 22.1072L197.17 27.2602H194.422L191.424 23.2714ZM202.068 18.9581C201.407 18.9581 200.859 19.149 200.427 19.5307C200.007 19.9124 199.727 20.485 199.587 21.2484H204.149C204.175 20.485 203.996 19.9124 203.615 19.5307C203.246 19.149 202.73 18.9581 202.068 18.9581ZM206.192 26.4968C206.128 26.5477 206.001 26.6241 205.81 26.7258C205.632 26.8276 205.39 26.9358 205.084 27.0503C204.792 27.1521 204.435 27.2412 204.015 27.3175C203.596 27.4066 203.112 27.4511 202.565 27.4511C200.745 27.4511 199.383 26.9994 198.48 26.096C197.589 25.1927 197.143 23.9267 197.143 22.2981C197.143 21.4965 197.264 20.7776 197.506 20.1414C197.748 19.5052 198.085 18.9708 198.518 18.5382C198.95 18.0929 199.466 17.7557 200.064 17.5267C200.675 17.285 201.343 17.1641 202.068 17.1641C202.807 17.1641 203.475 17.285 204.073 17.5267C204.671 17.7685 205.161 18.1311 205.543 18.6146C205.937 19.0981 206.211 19.7025 206.363 20.4277C206.516 21.1529 206.516 21.9927 206.363 22.947H199.549C199.638 23.8122 199.93 24.4611 200.427 24.8937C200.936 25.3263 201.687 25.5426 202.679 25.5426C203.086 25.5426 203.456 25.5107 203.786 25.4471C204.13 25.3708 204.423 25.2881 204.665 25.199C204.919 25.0972 205.129 25.0018 205.294 24.9127C205.473 24.811 205.6 24.7283 205.676 24.6646L206.192 26.4968ZM213.037 25.5426C213.8 25.5426 214.418 25.2754 214.888 24.741C215.372 24.1939 215.614 23.3796 215.614 22.2981C215.614 21.2166 215.372 20.4086 214.888 19.8742C214.418 19.3271 213.8 19.0536 213.037 19.0536C212.655 19.0536 212.299 19.1235 211.968 19.2635C211.65 19.3907 211.37 19.5879 211.128 19.8551C210.899 20.1223 210.714 20.4595 210.574 20.8667C210.434 21.2738 210.364 21.7509 210.364 22.2981C210.364 22.8452 210.434 23.3223 210.574 23.7295C210.714 24.1366 210.899 24.4738 211.128 24.741C211.37 25.0082 211.65 25.2117 211.968 25.3517C212.299 25.4789 212.655 25.5426 213.037 25.5426ZM213.609 27.4511C212.859 27.4511 212.216 27.2857 211.681 26.9549C211.147 26.6113 210.714 26.1533 210.383 25.5807V30.6383H208.074V17.355H210.212L210.345 19.0726C210.676 18.4874 211.109 18.0229 211.643 17.6794C212.191 17.3359 212.859 17.1641 213.648 17.1641C214.233 17.1641 214.787 17.2723 215.308 17.4886C215.843 17.6921 216.307 18.0102 216.702 18.4428C217.096 18.8627 217.408 19.3971 217.637 20.046C217.879 20.6822 218 21.4329 218 22.2981C218 23.176 217.879 23.9394 217.637 24.5883C217.408 25.2245 217.09 25.7589 216.683 26.1915C216.288 26.6113 215.824 26.9294 215.289 27.1457C214.755 27.3493 214.195 27.4511 213.609 27.4511Z" fill="white"/>
</g>
<defs>
<clipPath id="clip0_448_11631">
<rect width="235" height="40" fill="white"/>
</clipPath>
</defs>
</svg>
