<svg width="25" height="25" viewBox="0 0 25 25" fill="none" xmlns="http://www.w3.org/2000/svg">
<g clip-path="url(#clip0_148_6308)">
<path fill-rule="evenodd" clip-rule="evenodd" d="M5.5519 2.09998C5.12756 2.09998 4.72059 2.26855 4.42053 2.5686C4.12048 2.86866 3.9519 3.27563 3.9519 3.69998V21.3C3.9519 21.7243 4.12048 22.1313 4.42053 22.4313C4.72059 22.7314 5.12756 22.9 5.5519 22.9H17.5519C17.7641 22.9 17.9676 22.8157 18.1176 22.6657C18.2676 22.5156 18.3519 22.3121 18.3519 22.1C18.3519 21.8878 18.2676 21.6843 18.1176 21.5343C17.9676 21.3843 17.7641 21.3 17.5519 21.3H5.5519V3.69998H17.5519C17.7641 3.69998 17.9676 3.61569 18.1176 3.46566C18.2676 3.31563 18.3519 3.11215 18.3519 2.89998C18.3519 2.6878 18.2676 2.48432 18.1176 2.33429C17.9676 2.18426 17.7641 2.09998 17.5519 2.09998H5.5519ZM20.9183 8.33358C20.7681 8.18336 20.5643 8.09896 20.3519 8.09896C20.1395 8.09896 19.9357 8.18336 19.7855 8.33358C19.6353 8.48379 19.5509 8.68753 19.5509 8.89998C19.5509 9.11242 19.6353 9.31616 19.7855 9.46638L22.0207 11.7H11.1519C10.9397 11.7 10.7362 11.7843 10.5862 11.9343C10.4362 12.0843 10.3519 12.2878 10.3519 12.5C10.3519 12.7121 10.4362 12.9156 10.5862 13.0657C10.7362 13.2157 10.9397 13.3 11.1519 13.3H22.0207L19.7855 15.5336C19.6353 15.6838 19.5509 15.8875 19.5509 16.1C19.5509 16.3124 19.6353 16.5162 19.7855 16.6664C19.9357 16.8166 20.1395 16.901 20.3519 16.901C20.5643 16.901 20.7681 16.8166 20.9183 16.6664L24.5183 13.0664C24.5928 12.9921 24.6519 12.9038 24.6922 12.8066C24.7326 12.7094 24.7533 12.6052 24.7533 12.5C24.7533 12.3947 24.7326 12.2906 24.6922 12.1934C24.6519 12.0962 24.5928 12.0079 24.5183 11.9336L20.9183 8.33358Z" fill="#FFF"/>
</g>
<defs>
<clipPath id="clip0_148_6308">
<rect width="24" height="24" fill="white" transform="translate(0.751953 0.5)"/>
</clipPath>
</defs>
</svg>
