<svg width="20" height="18" viewBox="0 0 20 18" fill="none" xmlns="http://www.w3.org/2000/svg">
<g id="Group">
<path id="Vector" d="M10.8201 1.57998L10.0001 2.40198L9.17606 1.57798C8.16797 0.570029 6.80076 0.00381868 5.37521 0.00391245C3.94965 0.00400622 2.58252 0.570397 1.57456 1.57848C0.566605 2.58657 0.000394525 3.95378 0.000488293 5.37934C0.000582061 6.80489 0.566973 8.17203 1.57506 9.17998L9.47006 17.075C9.61069 17.2154 9.80131 17.2943 10.0001 17.2943C10.1988 17.2943 10.3894 17.2154 10.5301 17.075L18.4321 9.17798C19.439 8.16981 20.0044 6.80315 20.0042 5.37828C20.0041 3.95341 19.4382 2.58689 18.4311 1.57898C17.9314 1.07903 17.3382 0.682418 16.6852 0.411824C16.0323 0.14123 15.3324 0.00195312 14.6256 0.00195312C13.9187 0.00195312 13.2189 0.14123 12.5659 0.411824C11.9129 0.682418 11.3197 1.08003 10.8201 1.57998ZM17.3681 8.11998L10.0001 15.485L2.63506 8.11998C2.27209 7.76086 1.98368 7.33353 1.78639 6.86258C1.58911 6.39162 1.48686 5.88632 1.4855 5.37571C1.48414 4.86511 1.58371 4.35927 1.77848 3.88727C1.97325 3.41527 2.25939 2.98642 2.62044 2.62537C2.9815 2.26431 3.41035 1.97818 3.88235 1.7834C4.35435 1.58863 4.86019 1.48906 5.37079 1.49042C5.88139 1.49178 6.3867 1.59404 6.85765 1.79132C7.32861 1.9886 7.75593 2.27701 8.11506 2.63998L9.47306 3.99698C9.54371 4.06772 9.6278 4.12362 9.72036 4.16138C9.81293 4.19915 9.91212 4.21803 10.0121 4.21692C10.1121 4.2158 10.2108 4.1947 10.3025 4.15487C10.3942 4.11504 10.477 4.05728 10.5461 3.98498L11.8801 2.63998C12.6154 1.95556 13.5875 1.583 14.5919 1.60067C15.5963 1.61834 16.5546 2.02487 17.2654 2.73474C17.9762 3.44461 18.384 4.40248 18.4029 5.40685C18.4219 6.41122 18.0515 7.3838 17.3681 8.11998Z" fill="#1A1B22"/>
</g>
</svg>
