<svg width="48" height="44" viewBox="0 0 48 44" fill="none" xmlns="http://www.w3.org/2000/svg">
<g clip-path="url(#clip0_338_2983)">
<path fill-rule="evenodd" clip-rule="evenodd" d="M26.76 23.27L32.49 29L31 30.49L25.27 24.76C24.2 25.53 22.91 26 21.5 26C17.91 26 15 23.09 15 19.5C15 15.91 17.91 13 21.5 13C25.09 13 28 15.91 28 19.5C28 20.91 27.53 22.2 26.76 23.27ZM21.5 15C19.01 15 17 17.01 17 19.5C17 21.99 19.01 24 21.5 24C23.99 24 26 21.99 26 19.5C26 17.01 23.99 15 21.5 15Z" fill="#CAC4D0"/>
</g>
<defs>
<clipPath id="clip0_338_2983">
<rect x="4" y="2" width="40" height="40" rx="20" fill="white"/>
</clipPath>
</defs>
</svg>
