<svg width="64" height="64" viewBox="0 0 64 64" fill="none" xmlns="http://www.w3.org/2000/svg">
    <path fill-rule="evenodd" clip-rule="evenodd" d="M31.9997 5.33309C17.2956 5.33309 5.33301 17.2953 5.33301 31.9998C5.33301 46.7042 17.2956 58.6664 31.9997 58.6664C46.7038 58.6664 58.6663 46.7042 58.6663 31.9998C58.6663 17.2953 46.7038 5.33309 31.9997 5.33309ZM52.5255 19.5554C54.7304 23.1819 55.9999 27.4441 55.9999 32C55.9999 36.5559 54.7304 40.8154 52.5255 44.4446C52.1246 45.1043 51.6917 45.7452 51.232 46.3594C50.7696 46.9763 50.2805 47.5692 49.7647 48.138C48.7331 49.2729 47.5919 50.3118 46.3598 51.2304C46.0525 51.4628 45.7371 51.6844 45.4191 51.9007C44.1416 52.766 42.7785 53.5084 41.3407 54.1119C40.9826 54.2668 40.6191 54.411 40.2529 54.5446C39.5153 54.8116 38.7643 55.0466 37.9972 55.2442C36.081 55.7383 34.0712 56 31.9999 56C18.7465 56 7.99992 45.2538 7.99992 32C7.99992 18.7462 18.7465 8 31.9999 8C34.0712 8 36.081 8.26171 37.9972 8.75576C38.7643 8.95338 39.5153 9.18571 40.2529 9.45811C40.6191 9.59163 40.9826 9.73317 41.3407 9.88539C42.7785 10.4916 44.1416 11.2367 45.4191 12.0993C45.7371 12.3156 46.0525 12.5372 46.3598 12.7696C47.5919 13.6909 48.7331 14.7244 49.7647 15.862C50.2805 16.4308 50.7696 17.0264 51.232 17.6406C51.6917 18.2575 52.1246 18.8957 52.5255 19.5554Z" fill="#FF0200"/>
    <path d="M40.0007 24.001C39.7507 23.751 39.4116 23.6106 39.0581 23.6106C38.7045 23.6106 38.3654 23.751 38.1154 24.001L32.0007 30.1156L25.8861 24.001C25.636 23.751 25.297 23.6106 24.9434 23.6106C24.5898 23.6106 24.2508 23.751 24.0007 24.001C23.7508 24.251 23.6104 24.5901 23.6104 24.9436C23.6104 25.2972 23.7508 25.6363 24.0007 25.8863L30.1154 32.001L24.0007 38.1156C23.7508 38.3657 23.6104 38.7048 23.6104 39.0583C23.6104 39.4119 23.7508 39.7509 24.0007 40.001C24.2508 40.2509 24.5898 40.3914 24.9434 40.3914C25.297 40.3914 25.636 40.2509 25.8861 40.001L32.0007 33.8863L38.1154 40.001C38.3654 40.2509 38.7045 40.3914 39.0581 40.3914C39.4116 40.3914 39.7507 40.2509 40.0007 40.001C40.2507 39.7509 40.3911 39.4119 40.3911 39.0583C40.3911 38.7048 40.2507 38.3657 40.0007 38.1156L33.8861 32.001L40.0007 25.8863C40.2507 25.6363 40.3911 25.2972 40.3911 24.9436C40.3911 24.5901 40.2507 24.251 40.0007 24.001Z" fill="#FF0200"/>
</svg>
