<svg width="54" height="55" viewBox="0 0 54 55" fill="none" xmlns="http://www.w3.org/2000/svg">
    <path fill-rule="evenodd" clip-rule="evenodd" d="M26.9997 0.833092C12.2956 0.833092 0.333008 12.7953 0.333008 27.4998C0.333008 42.2042 12.2956 54.1664 26.9997 54.1664C41.7038 54.1664 53.6663 42.2042 53.6663 27.4998C53.6663 12.7953 41.7038 0.833092 26.9997 0.833092ZM47.5255 15.0554C49.7304 18.6819 50.9999 22.9441 50.9999 27.5C50.9999 32.0559 49.7304 36.3154 47.5255 39.9446C47.1246 40.6043 46.6917 41.2452 46.232 41.8594C45.7696 42.4763 45.2805 43.0692 44.7647 43.638C43.7331 44.7729 42.5919 45.8118 41.3598 46.7304C41.0525 46.9628 40.7371 47.1844 40.4191 47.4007C39.1416 48.266 37.7785 49.0084 36.3407 49.6119C35.9826 49.7668 35.6191 49.911 35.2529 50.0446C34.5153 50.3116 33.7643 50.5466 32.9972 50.7442C31.081 51.2383 29.0712 51.5 26.9999 51.5C13.7465 51.5 2.99992 40.7538 2.99992 27.5C2.99992 14.2462 13.7465 3.5 26.9999 3.5C29.0712 3.5 31.081 3.76171 32.9972 4.25576C33.7643 4.45338 34.5153 4.68571 35.2529 4.95811C35.6191 5.09163 35.9826 5.23317 36.3407 5.38539C37.7785 5.9916 39.1416 6.73668 40.4191 7.59926C40.7371 7.81557 41.0525 8.03722 41.3598 8.26956C42.5919 9.19089 43.7331 10.2244 44.7647 11.362C45.2805 11.9308 45.7696 12.5264 46.232 13.1406C46.6917 13.7575 47.1246 14.3957 47.5255 15.0554ZM17.7099 27.0333L24.0441 33.368L39.4927 17.9183L41.3804 19.8047L24.0441 37.1433L15.8221 28.9222L17.7099 27.0333Z" fill="white"/>
</svg>
