<svg width="29" height="28" viewBox="0 0 29 28" fill="none" xmlns="http://www.w3.org/2000/svg">
<g id="icon/delete">
<path id="Vector" d="M25.0002 4.66667H21.3835C21.1127 3.34998 20.3963 2.1669 19.355 1.31684C18.3136 0.466772 17.0111 0.00169695 15.6668 0L13.3335 0C11.9893 0.00169695 10.6867 0.466772 9.64537 1.31684C8.60404 2.1669 7.88761 3.34998 7.61683 4.66667H4.00016C3.69074 4.66667 3.394 4.78958 3.1752 5.00838C2.95641 5.22717 2.8335 5.52391 2.8335 5.83333C2.8335 6.14275 2.95641 6.4395 3.1752 6.65829C3.394 6.87708 3.69074 7 4.00016 7H5.16683V22.1667C5.16868 23.7132 5.78386 25.1959 6.87742 26.2894C7.97098 27.383 9.45364 27.9981 11.0002 28H18.0002C19.5467 27.9981 21.0293 27.383 22.1229 26.2894C23.2165 25.1959 23.8316 23.7132 23.8335 22.1667V7H25.0002C25.3096 7 25.6063 6.87708 25.8251 6.65829C26.0439 6.4395 26.1668 6.14275 26.1668 5.83333C26.1668 5.52391 26.0439 5.22717 25.8251 5.00838C25.6063 4.78958 25.3096 4.66667 25.0002 4.66667ZM13.3335 2.33333H15.6668C16.3905 2.33422 17.0961 2.55894 17.687 2.97668C18.2779 3.39443 18.7251 3.98474 18.9673 4.66667H10.033C10.2752 3.98474 10.7224 3.39443 11.3133 2.97668C11.9042 2.55894 12.6098 2.33422 13.3335 2.33333ZM21.5002 22.1667C21.5002 23.0949 21.1314 23.9852 20.475 24.6415C19.8187 25.2979 18.9284 25.6667 18.0002 25.6667H11.0002C10.0719 25.6667 9.18167 25.2979 8.52529 24.6415C7.86891 23.9852 7.50016 23.0949 7.50016 22.1667V7H21.5002V22.1667Z" fill="#1A1B22"/>
<path id="Vector_2" d="M12.1668 21.0003C12.4762 21.0003 12.773 20.8774 12.9917 20.6586C13.2105 20.4398 13.3335 20.1431 13.3335 19.8337V12.8337C13.3335 12.5242 13.2105 12.2275 12.9917 12.0087C12.773 11.7899 12.4762 11.667 12.1668 11.667C11.8574 11.667 11.5606 11.7899 11.3418 12.0087C11.123 12.2275 11.0001 12.5242 11.0001 12.8337V19.8337C11.0001 20.1431 11.123 20.4398 11.3418 20.6586C11.5606 20.8774 11.8574 21.0003 12.1668 21.0003Z" fill="#1A1B22"/>
<path id="Vector_3" d="M16.8332 21.0003C17.1426 21.0003 17.4393 20.8774 17.6581 20.6586C17.8769 20.4398 17.9998 20.1431 17.9998 19.8337V12.8337C17.9998 12.5242 17.8769 12.2275 17.6581 12.0087C17.4393 11.7899 17.1426 11.667 16.8332 11.667C16.5238 11.667 16.227 11.7899 16.0082 12.0087C15.7894 12.2275 15.6665 12.5242 15.6665 12.8337V19.8337C15.6665 20.1431 15.7894 20.4398 16.0082 20.6586C16.227 20.8774 16.5238 21.0003 16.8332 21.0003Z" fill="#1A1B22"/>
</g>
</svg>
