<svg width="25" height="25" viewBox="0 0 25 25" fill="none" xmlns="http://www.w3.org/2000/svg">
<g id="icon/user" clip-path="url(#clip0_496_5561)">
<path id="Vector" d="M21.5313 3.84707C19.1717 1.38417 15.907 -0.00576639 12.4962 0.000509442C5.6033 -0.00817213 0.00844733 5.57256 -0.000234245 12.4655C-0.00452273 15.8738 1.38526 19.1355 3.84633 21.4934C3.8535 21.5005 3.85616 21.5113 3.86328 21.5175C3.93555 21.5871 4.0141 21.6461 4.08732 21.713C4.28815 21.8915 4.48898 22.0763 4.70052 22.2486C4.81386 22.3378 4.93168 22.4271 5.04773 22.5092C5.24767 22.6582 5.44761 22.8073 5.65644 22.9448C5.79838 23.034 5.94476 23.1233 6.0902 23.2125C6.28298 23.3286 6.47491 23.4455 6.67396 23.5517C6.84268 23.641 7.01489 23.7177 7.18628 23.7989C7.37372 23.8882 7.55849 23.9774 7.75037 24.0577C7.94225 24.1381 8.13508 24.2006 8.32963 24.2702C8.52418 24.3398 8.69201 24.404 8.87856 24.4612C9.08922 24.5245 9.30521 24.5736 9.51942 24.6263C9.69792 24.67 9.87108 24.72 10.055 24.7557C10.3013 24.8048 10.5512 24.836 10.8012 24.87C10.9556 24.8914 11.1064 24.9217 11.2626 24.9369C11.6714 24.9771 12.0837 24.9994 12.4997 24.9994C12.9156 24.9994 13.328 24.9771 13.7367 24.9369C13.8929 24.9217 14.0438 24.8914 14.1982 24.87C14.4481 24.836 14.698 24.8048 14.9444 24.7557C15.1229 24.72 15.3014 24.6664 15.4799 24.6263C15.6941 24.5736 15.9101 24.5245 16.1208 24.4612C16.3073 24.404 16.4876 24.3344 16.6697 24.2702C16.8518 24.2059 17.0588 24.1363 17.249 24.0577C17.4391 23.9792 17.6256 23.8872 17.813 23.7989C17.9844 23.7177 18.1567 23.6409 18.3254 23.5517C18.5244 23.4455 18.7163 23.3285 18.9091 23.2125C19.0546 23.1233 19.201 23.042 19.3429 22.9448C19.5518 22.8073 19.7517 22.6583 19.9516 22.5092C20.0676 22.4199 20.1854 22.3396 20.2988 22.2486C20.5103 22.079 20.7112 21.8987 20.912 21.713C20.9852 21.6461 21.0637 21.5872 21.136 21.5175C21.1432 21.5113 21.1459 21.5006 21.153 21.4934C26.1305 16.7249 26.2998 8.82439 21.5313 3.84707ZM19.5251 20.5589C19.3627 20.7017 19.1949 20.8374 19.0253 20.9686C18.9254 21.0454 18.8254 21.1212 18.7227 21.1944C18.5612 21.3114 18.397 21.422 18.23 21.5282C18.1086 21.6059 17.9846 21.6809 17.8596 21.7541C17.7025 21.8433 17.5427 21.9326 17.3812 22.0218C17.2383 22.095 17.0928 22.1638 16.9465 22.2316C16.8002 22.2994 16.6386 22.3717 16.4806 22.4351C16.3226 22.4985 16.1548 22.5583 15.9897 22.6136C15.8388 22.6654 15.688 22.7189 15.5353 22.7644C15.3568 22.818 15.1703 22.8617 14.9855 22.9064C14.8409 22.9403 14.6981 22.9786 14.5518 23.0073C14.3402 23.0483 14.1242 23.0769 13.9073 23.1063C13.7842 23.1224 13.6619 23.1447 13.5378 23.1572C13.195 23.1902 12.8478 23.2099 12.497 23.2099C12.1463 23.2099 11.7991 23.1902 11.4563 23.1572C11.3323 23.1447 11.21 23.1224 11.0868 23.1063C10.8699 23.0769 10.6539 23.0483 10.4423 23.0073C10.296 22.9787 10.1531 22.9403 10.0086 22.9064C9.8238 22.8618 9.63992 22.8171 9.45876 22.7644C9.30615 22.7189 9.15527 22.6654 9.00444 22.6136C8.83933 22.5565 8.67417 22.4984 8.51351 22.4351C8.35285 22.3717 8.20113 22.3021 8.04758 22.2316C7.89403 22.1611 7.7557 22.0951 7.61293 22.0218C7.45138 21.938 7.29161 21.8496 7.1345 21.7541C7.00956 21.6809 6.88546 21.6059 6.76407 21.5282C6.59719 21.422 6.43292 21.3114 6.27137 21.1944C6.1687 21.1213 6.06876 21.0454 5.96877 20.9686C5.79916 20.8374 5.63139 20.7008 5.46895 20.5589C5.42967 20.5294 5.39395 20.492 5.35562 20.458C5.39552 17.4217 7.3461 14.7407 10.2228 13.7682C11.6612 14.4525 13.3312 14.4525 14.7695 13.7682C17.6462 14.7407 19.5967 17.4217 19.6367 20.458C19.5992 20.492 19.5635 20.5259 19.5251 20.5589ZM9.38371 7.15695C10.3501 5.43821 12.5269 4.82835 14.2456 5.79478C15.9643 6.76121 16.5742 8.93793 15.6078 10.6567C15.2871 11.2269 14.8159 11.6981 14.2456 12.0188C14.2412 12.0188 14.2358 12.0188 14.2304 12.0242C13.9937 12.1559 13.7436 12.2619 13.4842 12.3402C13.4378 12.3536 13.395 12.3714 13.3459 12.383C13.2566 12.4062 13.1629 12.4223 13.071 12.4383C12.8979 12.4686 12.7227 12.4862 12.547 12.491H12.4453C12.2696 12.4862 12.0945 12.4686 11.9213 12.4383C11.8321 12.4223 11.7375 12.4062 11.6465 12.383C11.5991 12.3714 11.5572 12.3536 11.5081 12.3402C11.2488 12.2619 10.9986 12.156 10.7619 12.0242L10.7459 12.0188C9.02714 11.0524 8.41728 8.87569 9.38371 7.15695ZM21.2201 18.6881C20.6473 16.0165 18.8881 13.7517 16.4413 12.5357C18.4415 10.3569 18.2966 6.96915 16.1178 4.96898C13.939 2.96882 10.5512 3.11369 8.55106 5.2925C6.67072 7.34083 6.67072 10.4874 8.55106 12.5357C6.10427 13.7517 4.34505 16.0165 3.77228 18.6881C0.349644 13.8671 1.48327 7.18425 6.30431 3.76162C11.1254 0.338986 17.8082 1.47261 21.2308 6.29366C22.5174 8.10596 23.2081 10.2738 23.207 12.4964C23.207 14.717 22.5122 16.882 21.2201 18.6881Z" fill="white"/>
</g>
<defs>
<clipPath id="clip0_496_5561">
<rect width="25" height="25" fill="white"/>
</clipPath>
</defs>
</svg>
